<?xml version="1.0" encoding="utf-8"?>
<!-- Generator: Adobe Illustrator 22.1.0, SVG Export Plug-In . SVG Version: 6.00 Build 0)  -->
<svg version="1.1" id="Layer_1" xmlns="http://www.w3.org/2000/svg" xmlns:xlink="http://www.w3.org/1999/xlink" x="0px" y="0px"
	 viewBox="0 0 3001 3000" style="enable-background:new 0 0 3001 3000;" xml:space="preserve">
<style type="text/css">
	.st0{fill:none;stroke:#000000;stroke-width:5;stroke-linecap:round;}
	.st1{fill:none;stroke:#000000;stroke-width:4.7644;stroke-linecap:round;}
	.st2{fill:none;stroke:#2039D2;stroke-width:5;stroke-linecap:round;}
	.st3{fill:none;stroke:#FFB905;stroke-width:4.7644;stroke-linecap:round;}
	.st4{fill:none;stroke:#FFB905;stroke-width:5;stroke-linecap:round;}
	.st5{fill:none;stroke:#000000;stroke-width:12;}
	.st6{fill:none;stroke:#000000;stroke-width:6;}
	.st7{fill:none;stroke:#000000;stroke-width:5;}
	.st8{fill:none;stroke:#000000;stroke-width:11;}
	.st9{fill:none;stroke:#000000;stroke-width:9;}
	.st10{fill:none;stroke:#000000;stroke-width:19.6118;}
	.st11{fill:none;stroke:#000000;stroke-width:14;}
	.st12{fill:#E1F3FF;}
	.st13{fill:#FF1D9C;}
	.st14{fill:#A74AFF;}
	.st15{fill:#4F31E0;}
	.st16{fill:#6877FF;}
	.st17{fill:url(#SVGID_1_);}
	.st18{fill:url(#SVGID_2_);}
	.st19{fill:url(#SVGID_3_);}
	.st20{fill:url(#SVGID_4_);}
	.st21{fill:#BDE0FF;}
	.st22{fill:url(#SVGID_5_);}
	.st23{fill:url(#SVGID_6_);}
	.st24{fill:#FFFFFF;}
	.st25{fill:url(#SVGID_7_);}
	.st26{fill:url(#SVGID_8_);}
	.st27{fill:url(#SVGID_9_);}
	.st28{fill:url(#SVGID_10_);}
	.st29{fill:url(#SVGID_11_);}
	.st30{fill:url(#SVGID_12_);}
	.st31{fill:url(#SVGID_13_);}
	.st32{fill:url(#SVGID_14_);}
	.st33{fill:url(#SVGID_15_);}
	.st34{opacity:0.73;fill:#FFFFFF;}
	.st35{fill:url(#SVGID_16_);}
	.st36{fill:url(#SVGID_17_);}
	.st37{opacity:0.4;fill:url(#SVGID_18_);}
	.st38{fill:url(#SVGID_19_);}
	.st39{fill:url(#SVGID_20_);}
	.st40{fill:url(#SVGID_21_);}
	.st41{fill:url(#SVGID_22_);}
	.st42{fill:#A181C9;}
	.st43{fill:url(#SVGID_23_);}
	.st44{fill:url(#SVGID_24_);}
	.st45{fill:url(#SVGID_25_);}
	.st46{fill:url(#SVGID_26_);}
	.st47{fill:url(#SVGID_27_);}
	.st48{fill:url(#SVGID_28_);}
	.st49{fill:url(#SVGID_29_);}
	.st50{fill:url(#SVGID_30_);}
	.st51{fill:url(#SVGID_31_);}
	.st52{fill:url(#SVGID_32_);}
	.st53{fill:url(#SVGID_33_);}
	.st54{fill:url(#SVGID_34_);}
	.st55{fill:url(#SVGID_35_);}
	.st56{fill:url(#SVGID_36_);}
	.st57{fill:url(#SVGID_37_);}
	.st58{fill:#7C006F;}
	.st59{fill:url(#SVGID_38_);}
	.st60{fill:url(#SVGID_39_);}
	.st61{fill:#981382;}
	.st62{fill:url(#SVGID_40_);}
	.st63{fill:url(#SVGID_41_);}
	.st64{opacity:0.62;fill:url(#SVGID_42_);}
	.st65{opacity:0.62;fill:url(#SVGID_43_);}
	.st66{opacity:0.62;fill:url(#SVGID_44_);}
	.st67{opacity:0.62;fill:url(#SVGID_45_);}
	.st68{opacity:0.86;fill:#C99AC7;}
	.st69{clip-path:url(#SVGID_47_);}
	.st70{fill:url(#SVGID_48_);}
	.st71{fill:url(#SVGID_49_);}
	.st72{fill:#E5E2FF;}
	.st73{fill:url(#SVGID_50_);}
	.st74{opacity:0.62;fill:url(#SVGID_51_);}
	.st75{opacity:0.62;fill:url(#SVGID_52_);}
	.st76{opacity:0.5;fill:url(#SVGID_53_);}
	.st77{fill:url(#SVGID_54_);}
	.st78{fill:url(#SVGID_55_);}
	.st79{fill:url(#SVGID_56_);}
	.st80{fill:url(#SVGID_57_);}
	.st81{fill:url(#SVGID_58_);}
	.st82{fill:url(#SVGID_59_);}
	.st83{fill:url(#SVGID_60_);}
	.st84{fill:url(#SVGID_61_);}
	.st85{opacity:0.5;fill:#FFFFFF;}
	.st86{fill:url(#SVGID_62_);}
	.st87{fill:url(#SVGID_63_);}
	.st88{fill:url(#SVGID_64_);}
	.st89{fill:#BF006F;}
	.st90{fill:url(#SVGID_65_);}
	.st91{fill:url(#SVGID_66_);}
	.st92{fill:url(#SVGID_67_);}
	.st93{fill:url(#SVGID_68_);}
	.st94{fill:url(#SVGID_69_);}
	.st95{fill:url(#SVGID_70_);}
	.st96{opacity:0.62;fill:url(#SVGID_71_);}
	.st97{opacity:0.5;fill:#361488;}
	.st98{fill:url(#SVGID_72_);}
	.st99{fill:url(#SVGID_73_);}
	.st100{fill:url(#SVGID_74_);}
	.st101{opacity:0.62;fill:url(#SVGID_75_);}
	.st102{fill:url(#SVGID_76_);}
	.st103{fill:url(#SVGID_77_);}
	.st104{opacity:0.62;fill:url(#SVGID_78_);}
	.st105{fill:url(#SVGID_79_);}
	.st106{fill:url(#SVGID_80_);}
	.st107{opacity:0.81;fill:url(#SVGID_81_);}
</style>
<g id="Background_Details">
	<g id="Waves">
		<path class="st0" d="M2331.9,2552.8c-7.8-16-19.2-62.5,35.4-57.8c44.9,3.9,42.5-38,35.4-59"/>
		<path class="st1" d="M1516.5,1493.9c-7.7-15.5-20.6-57.8,24.7-40.6c37.2,14.1,32-22.1,24.5-41.6"/>
		<path class="st1" d="M595.2,1338.7c-14.1-28.5-37.8-106,45.3-74.5c68.2,25.9,58.8-40.5,45-76.3"/>
		<path class="st1" d="M2677.6,2201.5c-14.1-28.4-37.8-106,45.3-74.4c68.2,25.9,58.8-40.5,45-76.3"/>
		<path class="st1" d="M2125.2,540.5c-6.7-13.6-18.1-50.7,21.7-35.6c32.6,12.4,28.1-19.4,21.5-36.5"/>
		<path class="st2" d="M1225.8,871.1c-14.1-28.4-37.7-105.8,45.2-74.3c68.1,25.9,58.7-40.4,44.9-76.2"/>
		<path class="st1" d="M834.5,2495.7c-8.7-21.8-18.8-83.9,52.5-72.8c58.6,9.2,59.8-46.2,52.6-74.3"/>
	</g>
	<g id="Lines">
		<path class="st1" d="M412.4,676.1l-127,152.2L158.5,980.6"/>
		<path class="st0" d="M737,371.6L261.1,941.2"/>
		<path class="st1" d="M481.5,796.8l-392.1,479"/>
		<path class="st3" d="M2449.1,691l-126.9,152.2l-126.9,152.2"/>
		<path class="st4" d="M2773.7,386.6l-475.9,569.6"/>
		<path class="st3" d="M2714.3,592.5l-392.1,479"/>
		<path class="st0" d="M1663.1,1720.5l-417.4,505.2"/>
		<path class="st1" d="M1545.1,1981.4l-370.5,446.9"/>
	</g>
	<g id="Black_Elipses">
		<circle class="st5" cx="2608.6" cy="1956.6" r="21.9"/>
		<circle class="st6" cx="1752.3" cy="441.1" r="66.4"/>
		<circle class="st7" cx="657.4" cy="2318.1" r="49.7"/>
		<circle class="st8" cx="2617" cy="872.3" r="43.5"/>
		<circle class="st9" cx="1035.3" cy="2063.3" r="11.1"/>
		<circle class="st10" cx="1760.1" cy="609.8" r="13.5"/>
		<circle class="st11" cx="847" cy="634.2" r="34.9"/>
		<circle class="st10" cx="1766.3" cy="2507.9" r="13.5"/>
		<circle class="st10" cx="1211.9" cy="1645.1" r="13.5"/>
	</g>
</g>
<g>
	<path class="st12" d="M698.6,1811.9c-78.4,88.6-145,94.1-196.1,27.7c-70.5-91.5-199.8-46.3-209-161.2
		c-9.2-114.9,206.1-292.6,349-267.1S843.8,1647.9,698.6,1811.9z"/>
	<path class="st12" d="M372.7,1786.6c-36-23.8-76.8,6.9-78.8,32.3c-2,25.4,78.9,32.4,91.5,22.4
		C398,1831.2,382.7,1793.1,372.7,1786.6z"/>
	<polygon class="st13" points="625.2,1475 671.5,1502.2 661.6,1518.3 618,1489.2 	"/>
	<polygon class="st14" points="268.3,1630.5 314.1,1594.8 325.2,1610.3 283.3,1643.5 	"/>
	<polygon class="st15" points="447.5,1507.9 444.6,1542.3 433.4,1541 435.8,1509.3 	"/>
	<polygon class="st16" points="791,1638.3 815,1664.6 824.4,1653.8 801.8,1628.8 	"/>
	<linearGradient id="SVGID_1_" gradientUnits="userSpaceOnUse" x1="584.1769" y1="1828.168" x2="584.1769" y2="1816.3221">
		<stop  offset="0" style="stop-color:#1C257B"/>
		<stop  offset="1" style="stop-color:#482C83"/>
	</linearGradient>
	<path class="st17" d="M590.1,1822.2c0,3.3-2.7,5.9-5.9,5.9c-3.3,0-5.9-2.7-5.9-5.9c0-3.3,2.7-5.9,5.9-5.9
		C587.4,1816.3,590.1,1819,590.1,1822.2z"/>
	<g>
		<linearGradient id="SVGID_2_" gradientUnits="userSpaceOnUse" x1="636.3226" y1="1877.6536" x2="636.3226" y2="1745.9301">
			<stop  offset="0" style="stop-color:#1C257B"/>
			<stop  offset="1" style="stop-color:#6A2C9A"/>
		</linearGradient>
		<path class="st18" d="M495.8,1868.1c0,0-41.5-53.8-28.3-122.1c0,0,102.2,52.9,106.5,117.3l70.8,1.7c0,0,80.8-71.7,163-75.6
			c0,0-12.6,78.7-86.2,88.3L495.8,1868.1z"/>
		<radialGradient id="SVGID_3_" cx="742.2432" cy="1712.3921" r="108.5367" gradientUnits="userSpaceOnUse">
			<stop  offset="0" style="stop-color:#3996F7"/>
			<stop  offset="1" style="stop-color:#6840D5"/>
		</radialGradient>
		<path class="st19" d="M665.9,1852.6c0,0,4.7-128.7,141.8-153.8c0,0,14.2,123.2-125.2,154.6L665.9,1852.6z"/>
		<linearGradient id="SVGID_4_" gradientUnits="userSpaceOnUse" x1="421.2697" y1="1868.0593" x2="421.2697" y2="1683.2986">
			<stop  offset="0" style="stop-color:#1C257B"/>
			<stop  offset="1" style="stop-color:#6A2C9A"/>
		</linearGradient>
		<path class="st20" d="M435,1867.9c0,0-83.8-39.9-88.2-184.6c0,0,112.9,13.5,149,184.8L435,1867.9z"/>
		<path class="st21" d="M807.7,1698.8l-141.8,153.8l20.8-4.4C686.7,1848.2,805,1822.2,807.7,1698.8z"/>
		<path class="st21" d="M353.6,1692l113.9,175.9l-28.8-3.2C438.7,1864.8,349.9,1807.4,353.6,1692z"/>
		<radialGradient id="SVGID_5_" cx="397.1022" cy="1822.4434" r="49.2201" gradientUnits="userSpaceOnUse">
			<stop  offset="0" style="stop-color:#3996F7"/>
			<stop  offset="1" style="stop-color:#6840D5"/>
		</radialGradient>
		<path class="st22" d="M477.6,1858.9c0,0-58.3-70.9-126.3-31.9C351.3,1827,395.2,1905.9,477.6,1858.9z"/>
		<path class="st21" d="M351.3,1827l120.8,27.9C472.1,1854.9,412.6,1903.9,351.3,1827z"/>
	</g>
	<g>
		<linearGradient id="SVGID_6_" gradientUnits="userSpaceOnUse" x1="584.1769" y1="1878.1608" x2="584.1769" y2="1572.7339">
			<stop  offset="0" style="stop-color:#4C25A6"/>
			<stop  offset="0.6015" style="stop-color:#457AE2"/>
			<stop  offset="1" style="stop-color:#6DD9F7"/>
		</linearGradient>
		<circle class="st23" cx="584.2" cy="1725.4" r="152.7"/>
		<path class="st24" d="M580.5,1584.8v-12.1c0,0,67.2-6.2,117.3,50.7l-9.8,7.1C688.1,1630.6,648.2,1583,580.5,1584.8z"/>
		<path class="st24" d="M697.8,1642.5l10.3-6.3c0,0,11.7,16.1,16.8,29.8l-11.9,2.7C712.9,1668.7,707.4,1655.8,697.8,1642.5z"/>
		<radialGradient id="SVGID_7_" cx="594.8383" cy="1600.0985" r="207.2236" gradientUnits="userSpaceOnUse">
			<stop  offset="0" style="stop-color:#3996F7"/>
			<stop  offset="1" style="stop-color:#6840D5"/>
		</radialGradient>
		<circle class="st25" cx="584.2" cy="1719.7" r="145.2"/>
		<linearGradient id="SVGID_8_" gradientUnits="userSpaceOnUse" x1="584.1769" y1="1831.5045" x2="584.1769" y2="1607.9849">
			<stop  offset="0" style="stop-color:#DDCDFF"/>
			<stop  offset="1" style="stop-color:#9F9CFF"/>
		</linearGradient>
		<circle class="st26" cx="584.2" cy="1719.7" r="111.8"/>
		<linearGradient id="SVGID_9_" gradientUnits="userSpaceOnUse" x1="584.1769" y1="1827.1023" x2="584.1769" y2="1625.9075">
			<stop  offset="0" style="stop-color:#EEF0FF"/>
			<stop  offset="1" style="stop-color:#DDCDFF"/>
		</linearGradient>
		<circle class="st27" cx="584.2" cy="1726.5" r="100.6"/>
		<linearGradient id="SVGID_10_" gradientUnits="userSpaceOnUse" x1="585.308" y1="1719.7449" x2="585.308" y2="1627">
			<stop  offset="0" style="stop-color:#1C257B"/>
			<stop  offset="1" style="stop-color:#482C83"/>
		</linearGradient>
		<polygon class="st28" points="576.9,1719.7 582.9,1627 588.4,1627 593.7,1719.7 		"/>
		<linearGradient id="SVGID_11_" gradientUnits="userSpaceOnUse" x1="614.5505" y1="1725.3474" x2="614.5505" y2="1711.3865">
			<stop  offset="0" style="stop-color:#1C257B"/>
			<stop  offset="1" style="stop-color:#482C83"/>
		</linearGradient>
		<polygon class="st29" points="585.3,1725.3 584.3,1711.4 644.8,1714.4 644.8,1719.7 		"/>
		<linearGradient id="SVGID_12_" gradientUnits="userSpaceOnUse" x1="586.4092" y1="1727.2357" x2="586.4092" y2="1706.8821">
			<stop  offset="0" style="stop-color:#1C257B"/>
			<stop  offset="1" style="stop-color:#482C83"/>
		</linearGradient>
		<path class="st30" d="M596.6,1717.1c0,5.6-4.6,10.2-10.2,10.2c-5.6,0-10.2-4.6-10.2-10.2c0-5.6,4.6-10.2,10.2-10.2
			C592,1706.9,596.6,1711.4,596.6,1717.1z"/>
		<linearGradient id="SVGID_13_" gradientUnits="userSpaceOnUse" x1="495.2457" y1="1722.9818" x2="495.2457" y2="1711.1356">
			<stop  offset="0" style="stop-color:#1C257B"/>
			<stop  offset="1" style="stop-color:#482C83"/>
		</linearGradient>
		<circle class="st31" cx="495.2" cy="1717.1" r="5.9"/>
		<linearGradient id="SVGID_14_" gradientUnits="userSpaceOnUse" x1="672.7925" y1="1722.9818" x2="672.7925" y2="1711.1356">
			<stop  offset="0" style="stop-color:#1C257B"/>
			<stop  offset="1" style="stop-color:#482C83"/>
		</linearGradient>
		<circle class="st32" cx="672.8" cy="1717.1" r="5.9"/>
		<linearGradient id="SVGID_15_" gradientUnits="userSpaceOnUse" x1="586.4092" y1="1632.9231" x2="586.4092" y2="1621.0769">
			<stop  offset="0" style="stop-color:#1C257B"/>
			<stop  offset="1" style="stop-color:#482C83"/>
		</linearGradient>
		<circle class="st33" cx="586.4" cy="1627" r="5.9"/>
		<path class="st34" d="M558.8,1615.2l12.6,35.5c0,0,53.7,0.8,80.5,33.6l26.8-13.2C672.8,1648.2,625.2,1599.3,558.8,1615.2z"/>
		<path class="st24" d="M519.8,1804.4l13-18.2c0,0,29.4,20.7,75.2,17.7l6.6,19.7C614.6,1823.5,564.3,1839.5,519.8,1804.4z"/>
		<path class="st24" d="M614.6,1577.7c0,0,17.9,47.3,57,26C671.5,1603.7,648.6,1583.6,614.6,1577.7z"/>
	</g>
	<g>
		<linearGradient id="SVGID_16_" gradientUnits="userSpaceOnUse" x1="581.4009" y1="1940.0928" x2="581.4009" y2="1851.9844">
			<stop  offset="0" style="stop-color:#D1BBFF"/>
			<stop  offset="1" style="stop-color:#EFEAFF"/>
		</linearGradient>
		<path class="st35" d="M421.3,1936.3l-5.2-80.6c0,0,163.5-7.8,330.7-0.8l-9.4,85.2L421.3,1936.3z"/>
		<linearGradient id="SVGID_17_" gradientUnits="userSpaceOnUse" x1="581.9448" y1="1932.6064" x2="581.9448" y2="1862.3271">
			<stop  offset="0" style="stop-color:#DDCDFF"/>
			<stop  offset="1" style="stop-color:#9F9CFF"/>
		</linearGradient>
		<path class="st36" d="M432,1929.4l-2.8-66.2c0,0,149.5-3.2,305.4,2.6l-5.3,66.8L432,1929.4z"/>
		<linearGradient id="SVGID_18_" gradientUnits="userSpaceOnUse" x1="581.9448" y1="1894.7914" x2="581.9448" y2="1862.5897">
			<stop  offset="0" style="stop-color:#FFFFFF"/>
			<stop  offset="1" style="stop-color:#7460E0"/>
		</linearGradient>
		<path class="st37" d="M734.7,1865.8c0,0-11,11.4-14,29l-278.8-3.7l-12.7-27.8C429.2,1863.2,665.7,1860.7,734.7,1865.8z"/>
		<linearGradient id="SVGID_19_" gradientUnits="userSpaceOnUse" x1="503.8556" y1="1930.9999" x2="503.8556" y2="1861.9889">
			<stop  offset="0" style="stop-color:#B31A8F"/>
			<stop  offset="8.967161e-03" style="stop-color:#B51A8F"/>
			<stop  offset="0.1486" style="stop-color:#D01789"/>
			<stop  offset="0.3008" style="stop-color:#E41484"/>
			<stop  offset="0.4721" style="stop-color:#F31281"/>
			<stop  offset="0.6764" style="stop-color:#FB117F"/>
			<stop  offset="1" style="stop-color:#FE117E"/>
		</linearGradient>
		<path class="st38" d="M429.2,1863.2l2.4,64.4l146.9,3.4l-4.5-67.8C574,1863.2,523.6,1860.4,429.2,1863.2z"/>
		<linearGradient id="SVGID_20_" gradientUnits="userSpaceOnUse" x1="459.3327" y1="1927.5944" x2="459.3327" y2="1861.9888">
			<stop  offset="0" style="stop-color:#B9ACF4"/>
			<stop  offset="1" style="stop-color:#E1D1F5"/>
		</linearGradient>
		<polygon class="st39" points="430.9,1920.9 473.9,1862 487.8,1862 441.9,1927.6 431.6,1927.6 		"/>
		<linearGradient id="SVGID_21_" gradientUnits="userSpaceOnUse" x1="504.4868" y1="1928.97" x2="504.4868" y2="1862.0466">
			<stop  offset="0" style="stop-color:#B9ACF4"/>
			<stop  offset="1" style="stop-color:#E1D1F5"/>
		</linearGradient>
		<polygon class="st40" points="474.3,1928.4 521.7,1862 534.7,1862.2 490.9,1929 		"/>
		<linearGradient id="SVGID_22_" gradientUnits="userSpaceOnUse" x1="553.0386" y1="1929.832" x2="553.0386" y2="1863.2212">
			<stop  offset="0" style="stop-color:#B9ACF4"/>
			<stop  offset="1" style="stop-color:#E1D1F5"/>
		</linearGradient>
		<polygon class="st41" points="531.1,1929.8 574,1863.2 575,1878.6 543.2,1929.8 		"/>
		<polygon class="st42" points="421.3,1936.3 430.9,1947 727.2,1949.9 737.3,1940.1 		"/>
		<path class="st24" d="M429.2,1863.2l0.9,24.1h145.5l-1.6-24.1C574,1863.2,524.4,1862,429.2,1863.2z"/>
		<path class="st24" d="M534.7,1862.2c0,0,17.4,17.7,40.9,0.3L534.7,1862.2z"/>
		<path class="st24" d="M558.8,1852.2c0,0,9.4,10.1,31.3,9.8c21.9-0.2,29.3-9.8,29.3-9.8S567.9,1852.1,558.8,1852.2z"/>
		<path class="st24" d="M441.9,1927.6c0,0,86.9-13.4,125.3,3.1L441.9,1927.6z"/>
		<linearGradient id="SVGID_23_" gradientUnits="userSpaceOnUse" x1="653.2984" y1="1932.6064" x2="653.2984" y2="1912.3917">
			<stop  offset="0" style="stop-color:#FFFFFF"/>
			<stop  offset="1" style="stop-color:#000000"/>
		</linearGradient>
		<path class="st43" d="M729.4,1932.6c0,0-6.6-2.5-9.9-20.2H577.2l1.2,18.6L729.4,1932.6z"/>
		<path class="st24" d="M662,1931.5c0,0,22.5-12.7,38.7,0.8L662,1931.5z"/>
	</g>
	<path class="st12" d="M787.4,1441.4c-2.8-29.9-37.2-38.6-51.8-28.6c-14.6,10,16.8,56.8,27.7,59.2
		C774.2,1474.6,788.1,1449.7,787.4,1441.4z"/>
</g>
<g>
	<path class="st12" d="M1802.5,1155.1c-80.9-55.2-96.3-238.9-8.9-321.4c92.4-87.2,375.6-11.6,377.5,138.3
		C2173.1,1121.7,1884.5,1211,1802.5,1155.1z"/>
	<g>
		
			<radialGradient id="SVGID_24_" cx="2018.0771" cy="1057.7441" r="96.9906" gradientTransform="matrix(0.9837 0.1797 -0.1797 0.9837 281.8365 -249.2083)" gradientUnits="userSpaceOnUse">
			<stop  offset="0" style="stop-color:#3996F7"/>
			<stop  offset="1" style="stop-color:#6840D5"/>
		</radialGradient>
		<path class="st44" d="M1987.3,1264.9c0,0,24.8-112.4,149.4-112.4c0,0-7.3,110.6-134.9,115.8L1987.3,1264.9z"/>
		<path class="st21" d="M2136.7,1152.5l-149.4,112.4l19-0.5C2006.3,1264.4,2114.4,1260.6,2136.7,1152.5z"/>
	</g>
	<g>
		
			<linearGradient id="SVGID_25_" gradientUnits="userSpaceOnUse" x1="1848.2158" y1="1514.5258" x2="1848.2158" y2="1302.9292" gradientTransform="matrix(0.8676 -0.4973 0.4973 0.8676 -519.7855 920.7604)">
			<stop  offset="0" style="stop-color:#1C257B"/>
			<stop  offset="1" style="stop-color:#6A2C9A"/>
		</linearGradient>
		<path class="st45" d="M1867.8,1297.9c0,0-124.3,4.4-204.7-126.5c0,0,111.1-47.1,234.7,91.5L1867.8,1297.9z"/>
		<path class="st21" d="M1674,1175.8l197.7,101.9l-28.2,12.3C1843.5,1290,1731.4,1284,1674,1175.8z"/>
	</g>
	<g>
		
			<radialGradient id="SVGID_26_" cx="1556.8815" cy="957.3582" r="52.2403" gradientTransform="matrix(0.7758 0.631 -0.631 0.7758 1217.4508 -614.3685)" gradientUnits="userSpaceOnUse">
			<stop  offset="0" style="stop-color:#3996F7"/>
			<stop  offset="1" style="stop-color:#6840D5"/>
		</radialGradient>
		<path class="st46" d="M1863.1,1194.7c0,0-0.6-97.4-82.6-110.8C1780.4,1083.8,1763.7,1178.2,1863.1,1194.7z"/>
		<path class="st21" d="M1780.4,1083.8l80.8,103.9C1861.2,1187.7,1779.4,1188.2,1780.4,1083.8z"/>
	</g>
	<polygon class="st13" points="1963.6,794.2 2027.6,796.9 2026,817.9 1966.9,815.8 	"/>
	<polygon class="st16" points="1795.8,918.3 1822.3,947.3 1832.7,935.3 1807.7,907.8 	"/>
	<g>
		<linearGradient id="SVGID_27_" gradientUnits="userSpaceOnUse" x1="2019.2874" y1="1073.1564" x2="2146.4517" y2="1073.1564">
			<stop  offset="0" style="stop-color:#3D2C97"/>
			<stop  offset="1" style="stop-color:#183683"/>
		</linearGradient>
		<path class="st47" d="M2130.3,1073.5c0-0.4,0-0.8,0-1.2l16.2-1.2c0.2-10.8-3.1-20.8-9.3-28.5l-12.8,7.9
			c-6.3-11.2-17-19.7-29.8-22.9l3.3-13.5c-10.2-3.5-20.7-3.5-30,0l3.3,13.5c-12.8,3.2-23.5,11.6-29.7,22.9l-12.9-7.9
			c-6.5,8.7-9.7,18.7-9.3,28.5l16.2,1.2c0,0.4,0,0.8,0,1.2c0,12.4,4.7,23.7,12.6,32.1l-13.7,11.6c6.2,8.8,14.7,15,24.3,17.6
			l7.1-17.2c5.3,2.1,11.1,3.2,17.2,3.2c6.1,0,11.9-1.1,17.2-3.2l7.1,17.2c10.3-3.2,18.8-9.4,24.3-17.6l-13.7-11.6
			C2125.6,1097.2,2130.3,1085.9,2130.3,1073.5z M2089.4,1091.7c-2,0.8-4.2,1.2-6.5,1.2c-2.3,0-4.5-0.4-6.5-1.2c-2.6-0.9-5-2.4-7-4.3
			c-3.4-3.3-5.6-7.8-5.8-12.9c-0.1-0.3-0.1-0.7-0.1-1c0-3,0.7-5.8,1.9-8.3c2.4-5,6.9-8.9,12.4-10.4c1.6-0.5,3.3-0.7,5.1-0.7
			c1.8,0,3.5,0.2,5.1,0.7c5.5,1.5,10,5.3,12.4,10.4c1.2,2.5,1.9,5.3,1.9,8.3c0,0.3,0,0.7-0.1,1c-0.2,5.1-2.4,9.6-5.8,12.9
			C2094.4,1089.3,2092,1090.8,2089.4,1091.7z"/>
		<linearGradient id="SVGID_28_" gradientUnits="userSpaceOnUse" x1="2082.8518" y1="1121.8939" x2="2082.8518" y2="998.3975">
			<stop  offset="0" style="stop-color:#7459F1"/>
			<stop  offset="1" style="stop-color:#60B3F7"/>
		</linearGradient>
		<path class="st48" d="M2130.3,1060.5c0-0.4,0-0.8,0-1.2l16.2-1.2c0.2-10.8-3.1-20.8-9.3-28.5l-12.8,7.9
			c-6.3-11.2-17-19.7-29.8-22.9l3.3-13.5c-10.2-3.5-20.7-3.5-30,0l3.3,13.5c-12.8,3.2-23.5,11.6-29.7,22.9l-12.9-7.9
			c-6.5,8.7-9.7,18.7-9.3,28.5l16.2,1.2c0,0.4,0,0.8,0,1.2c0,12.4,4.7,23.7,12.6,32.1l-13.7,11.6c6.2,8.8,14.7,15,24.3,17.6
			l7.1-17.2c5.3,2.1,11.1,3.2,17.2,3.2c6.1,0,11.9-1.1,17.2-3.2l7.1,17.2c10.3-3.2,18.8-9.4,24.3-17.6l-13.7-11.6
			C2125.6,1084.2,2130.3,1072.9,2130.3,1060.5z M2089.4,1078.7c-2,0.8-4.2,1.2-6.5,1.2c-2.3,0-4.5-0.4-6.5-1.2c-2.6-0.9-5-2.4-7-4.3
			c-3.4-3.3-5.6-7.8-5.8-12.9c-0.1-0.3-0.1-0.7-0.1-1c0-3,0.7-5.8,1.9-8.3c2.4-5,6.9-8.9,12.4-10.4c1.6-0.5,3.3-0.7,5.1-0.7
			c1.8,0,3.5,0.2,5.1,0.7c5.5,1.5,10,5.3,12.4,10.4c1.2,2.5,1.9,5.3,1.9,8.3c0,0.3,0,0.7-0.1,1c-0.2,5.1-2.4,9.6-5.8,12.9
			C2094.4,1076.3,2092,1077.8,2089.4,1078.7z"/>
		<linearGradient id="SVGID_29_" gradientUnits="userSpaceOnUse" x1="2082.8418" y1="1118.8207" x2="2082.8418" y2="1000.9124">
			<stop  offset="0" style="stop-color:#744FD8"/>
			<stop  offset="1" style="stop-color:#3996F7"/>
		</linearGradient>
		<path class="st49" d="M2057.1,1118.8c-7.5-2.5-14.1-7.4-19.4-14.2l13.9-11.8l-1.8-1.9c-7.7-8.3-11.9-19.1-11.9-30.4
			c0-0.3,0-0.7,0-1l0.2-2.5l-16.4-1.3c0.1-7.8,2.7-15.8,7.5-22.8l13.1,8l1.3-2.3c6-10.8,16.3-18.7,28.1-21.7l2.4-0.6l-3.3-13.7
			c3.7-1.1,7.6-1.7,11.6-1.7c4.1,0,8.3,0.6,12.4,1.8l-3.3,13.7l2.4,0.6c11.9,3,22.2,10.9,28.2,21.7l1.3,2.3l13.1-8.1
			c4.5,6.4,7.1,14.4,7.4,22.9l-16.3,1.3l0.2,2.5c0,0.3,0,0.7,0,1c0,11.3-4.2,22.1-11.9,30.4l-1.8,1.9l13.9,11.9
			c-4.7,6.3-11.4,11.1-19.5,14.1l-7.1-17.3l-2.3,0.9c-5.2,2-10.6,3.1-16.3,3.1c-5.6,0-11.1-1-16.3-3.1l-2.3-0.9L2057.1,1118.8z
			 M2082.9,1038.6c-2.1,0-4,0.3-5.8,0.8c-6.1,1.6-11.2,5.9-13.9,11.7c-1.4,2.8-2.1,6-2.1,9.4c0,0.5,0,0.9,0.1,1.4
			c0.2,5.3,2.6,10.5,6.6,14.3c2.2,2.2,5,3.9,7.9,4.9c2.2,0.8,4.7,1.3,7.3,1.3c2.6,0,5-0.4,7.4-1.3c2.8-0.9,5.6-2.6,7.9-4.9
			c4-3.8,6.3-9,6.6-14.6c0-0.1,0.1-0.6,0.1-1.1c0-3.3-0.7-6.5-2.2-9.4c-2.7-5.8-7.8-10-14-11.7
			C2086.9,1038.9,2084.9,1038.6,2082.9,1038.6z"/>
		<linearGradient id="SVGID_30_" gradientUnits="userSpaceOnUse" x1="2107.1816" y1="1119.5867" x2="2131.4553" y2="1119.5867">
			<stop  offset="0" style="stop-color:#3D2C97"/>
			<stop  offset="1" style="stop-color:#183683"/>
		</linearGradient>
		<path class="st50" d="M2131.4,1104.3l0,13c0,0-8.6,14-24.3,17.6l0-13C2107.2,1121.9,2122.9,1115.9,2131.4,1104.3z"/>
		<linearGradient id="SVGID_31_" gradientUnits="userSpaceOnUse" x1="2034.3295" y1="1119.5867" x2="2058.603" y2="1119.5867">
			<stop  offset="0" style="stop-color:#3D2C97"/>
			<stop  offset="1" style="stop-color:#183683"/>
		</linearGradient>
		<path class="st51" d="M2058.6,1121.9l0,13c0,0-16.2-4.6-24.3-17.6l0-13C2034.3,1104.3,2045,1118.4,2058.6,1121.9z"/>
		<linearGradient id="SVGID_32_" gradientUnits="userSpaceOnUse" x1="2130.2761" y1="1065.2094" x2="2146.4453" y2="1065.2094">
			<stop  offset="0" style="stop-color:#3D2C97"/>
			<stop  offset="1" style="stop-color:#183683"/>
		</linearGradient>
		<polygon class="st52" points="2146.4,1058.1 2146.4,1071.1 2130.3,1072.3 2130.3,1059.3 		"/>
		<linearGradient id="SVGID_33_" gradientUnits="userSpaceOnUse" x1="2094.5723" y1="1008.0659" x2="2097.877" y2="1008.0659">
			<stop  offset="0" style="stop-color:#3D2C97"/>
			<stop  offset="1" style="stop-color:#183683"/>
		</linearGradient>
		<polygon class="st53" points="2096.6,1015.1 2097.9,1014 2097.9,1001 2094.6,1014.6 		"/>
		<linearGradient id="SVGID_34_" gradientUnits="userSpaceOnUse" x1="2067.8796" y1="1008.0659" x2="2071.1665" y2="1008.0659">
			<stop  offset="0" style="stop-color:#3D2C97"/>
			<stop  offset="1" style="stop-color:#183683"/>
		</linearGradient>
		<polygon class="st54" points="2067.9,1001 2067.9,1014 2069.2,1015.1 2071.2,1014.6 		"/>
		<linearGradient id="SVGID_35_" gradientUnits="userSpaceOnUse" x1="2027.4102" y1="1072.338" x2="2027.4102" y2="1058.0807">
			<stop  offset="0" style="stop-color:#3D2C97"/>
			<stop  offset="1" style="stop-color:#183683"/>
		</linearGradient>
		<polygon class="st55" points="2019.3,1058.1 2019.3,1071.1 2035.5,1072.3 2035.5,1059.3 		"/>
		<linearGradient id="SVGID_36_" gradientUnits="userSpaceOnUse" x1="2062.136" y1="1134.9043" x2="2062.136" y2="1104.694">
			<stop  offset="0" style="stop-color:#8B8BE0"/>
			<stop  offset="1" style="stop-color:#A177B7"/>
		</linearGradient>
		<polygon class="st56" points="2058.6,1134.9 2058.6,1121.9 2065.7,1104.7 2065.7,1117.7 		"/>
		<linearGradient id="SVGID_37_" gradientUnits="userSpaceOnUse" x1="2103.6396" y1="1133.5802" x2="2103.6396" y2="1104.694">
			<stop  offset="0" style="stop-color:#8B8BE0"/>
			<stop  offset="1" style="stop-color:#A177B7"/>
		</linearGradient>
		<polygon class="st57" points="2100.1,1117.7 2100.1,1104.7 2107.2,1121.9 2107.2,1133.6 		"/>
	</g>
	<polygon class="st15" points="2155.4,933.8 2128.7,949.9 2118,929.7 2147.2,912.6 	"/>
	<path class="st12" d="M1913.9,724.8c-29.7-11.4-54.3,17.1-51.6,35.7c2.6,18.6,61.9,10.9,69.4,1.6
		C1939.1,753,1922.1,728,1913.9,724.8z"/>
	<g>
		<path class="st58" d="M2043.5,1234.6c4.3-12.8,7.5-43.5,0-62.5l-18.3,25.4c-1.8-13-6.3-25.1-13-35.8l13.9-9.5
			c-4.9-10.3-17.5-23.4-28.6-28.7l-8.9,13c-10.4-7.6-22.6-13-35.8-15.6l2.8-14.7c-10.8-3.8-28.9-4.2-40.5,0l2.8,14.7
			c-13.2,2.6-25.3,8-35.8,15.6l-8.9-13.1c-10.2,5-23.4,17.6-28.6,28.7l14,9.5c-6.7,10.6-11.3,22.8-13.1,35.8l-18.3-3.4
			c-3.7,10.8-4.1,28.9,0,40.5l19.8-3.7c2.9,12.3,8.2,23.6,15.5,33.3l-18,12.3c5,10.2,17.5,23.4,28.6,28.6l12.9-18.8
			c9.9,6.5,21.2,11,33.3,13.1l-4.3,23.1c10.8,3.7,28.9,4.1,40.5,0l-4.3-23.1c12.1-2.1,23.4-6.7,33.3-13.1l12.9,18.8
			c10.3-5,23.4-17.5,28.6-28.6l-17.9-12.3c7.3-9.7,12.7-21.1,15.5-33.3L2043.5,1234.6z M1967.3,1236.2c-3,3.6-6.6,6.7-10.6,9.2
			c-4.4,2.6-9.3,4.5-14.5,5.3c-2.2,0.4-4.5,0.6-6.8,0.6c-2.3,0-4.6-0.2-6.8-0.6c-5.2-0.8-10.1-2.7-14.4-5.2
			c-4.1-2.5-7.7-5.6-10.7-9.3c-3.4-4.2-6-9.1-7.6-14.4c-1.1-3.7-1.7-7.6-1.7-11.7c0-1.1,0-2.3,0.1-3.4c0.5-6.1,2.3-11.9,5.1-16.9
			c2.7-4.7,6.4-9,10.7-12.3c4.8-3.8,10.6-6.5,16.9-7.8c2.7-0.5,5.5-0.8,8.4-0.8c2.9,0,5.6,0.3,8.4,0.8c6.2,1.3,12,4,16.9,7.8
			c4.3,3.4,8,7.6,10.7,12.3c2.8,5,4.7,10.8,5.1,16.9c0.1,1.1,0.1,2.3,0.1,3.4c0,4.1-0.6,8-1.7,11.7
			C1973.3,1227.1,1970.7,1231.9,1967.3,1236.2z"/>
		<linearGradient id="SVGID_38_" gradientUnits="userSpaceOnUse" x1="1935.4275" y1="1303.438" x2="1935.4275" y2="1081.2024">
			<stop  offset="0" style="stop-color:#971A8F"/>
			<stop  offset="0.4678" style="stop-color:#EF22AC"/>
			<stop  offset="1" style="stop-color:#FE4CCE"/>
		</linearGradient>
		<path class="st59" d="M2043.6,1212.6c3.1-8.8,3.9-22.5,1.8-33.5c-0.5-2.5-1.1-4.8-1.8-6.9l-18.3,3.4c-1.8-13-6.3-25.1-13-35.8
			l13.9-9.5c-1.7-3.6-4.4-7.5-7.6-11.4c-5.9-7.1-13.8-13.9-21-17.4l-8.9,13c-10.5-7.6-22.6-13-35.8-15.6l2.8-14.7
			c-10.8-3.8-28.9-4.2-40.5,0l2.8,14.7c-13.1,2.6-25.3,7.9-35.8,15.6l-8.9-13.1c-10.3,5-23.3,17.6-28.7,28.7l14,9.5
			c-6.7,10.7-11.3,22.8-13.1,35.8l-18.3-3.4c-1.6,4.5-2.5,10.2-2.8,16.1c-0.5,8.5,0.4,17.6,2.8,24.3l19.8-3.7
			c2.9,12.3,8.2,23.6,15.5,33.3l-18,12.3c2.3,4.5,6,9.7,10.5,14.4c5.5,5.9,12.1,11.3,18.2,14.2l12.9-18.9c9.9,6.5,21.2,11,33.3,13.1
			l-4.3,23.1c10.8,3.7,29,4.1,40.5,0l-4.3-23c7.9-1.4,15.4-3.8,22.4-7.1c3.8-1.8,7.4-3.8,10.9-6l12.9,18.8
			c10.3-5,23.4-17.5,28.6-28.6l-17.9-12.3c7.3-9.8,12.7-21.1,15.5-33.3L2043.6,1212.6z M1967.4,1214.2c-3,3.6-6.6,6.7-10.7,9.2
			c-4.3,2.6-9.3,4.4-14.5,5.3c-2.2,0.4-4.4,0.6-6.8,0.6c-2.3,0-4.6-0.2-6.8-0.6c-4.8-0.8-9.3-2.4-13.4-4.6c-0.4-0.2-0.8-0.4-1.1-0.6
			c-4-2.5-7.6-5.6-10.7-9.3c-3.4-4.2-6-9.1-7.6-14.4c-0.1-0.3-0.2-0.7-0.3-1c-0.9-3.4-1.4-7-1.4-10.8c0-1.1,0-2.3,0.2-3.4
			c0.5-6.1,2.3-11.9,5.1-16.9c1.8-3.2,4.1-6.1,6.7-8.7c1.3-1.3,2.6-2.5,4-3.6c4.8-3.8,10.6-6.5,16.9-7.7c2.7-0.6,5.5-0.9,8.3-0.9
			c1.5,0,2.9,0.1,4.3,0.2h0c1.4,0.2,2.7,0.4,4.1,0.7c6.2,1.3,12,4,16.8,7.7c4.3,3.4,7.9,7.6,10.7,12.3c2.8,5,4.6,10.8,5.1,16.9
			c0.1,1.1,0.2,2.3,0.2,3.4c0,4.1-0.6,8-1.7,11.7c-0.4,1.4-0.9,2.8-1.5,4.1C1971.9,1207.6,1969.9,1211.1,1967.4,1214.2z"/>
		<path class="st24" d="M1915.2,1224l-52.7,18.2c-7.3-9.8-12.6-21.1-15.5-33.3l-19.8,3.7c-2.4-6.8-3.3-15.8-2.8-24.3l81.7-29.2
			c-2.6,2.6-4.9,5.5-6.7,8.7c-2.8,5-4.6,10.8-5.1,16.9c-0.1,1.1-0.2,2.3-0.2,3.4c0,3.7,0.5,7.3,1.4,10.8c0.1,0.3,0.2,0.7,0.3,1
			c1.6,5.3,4.2,10.2,7.6,14.4c3,3.7,6.6,6.8,10.7,9.3C1914.5,1223.6,1914.8,1223.8,1915.2,1224z"/>
		<path class="st24" d="M1974.9,1199.8c1.1-3.7,1.7-7.6,1.7-11.7c0-1.1-0.1-2.3-0.2-3.4c-0.5-6.1-2.3-11.9-5.1-16.9
			c-2.8-4.7-6.4-9-10.7-12.3c-4.8-3.8-10.6-6.5-16.8-7.7c-1.4-0.3-2.7-0.5-4.1-0.7l78.9-28.2c3.2,3.8,5.9,7.7,7.6,11.4l-13.9,9.5
			c6.7,10.7,11.2,22.8,13,35.8l18.3-3.4c0.8,2.1,1.4,4.4,1.8,6.9l-71.9,24.8C1974,1202.5,1974.5,1201.2,1974.9,1199.8z"/>
		<linearGradient id="SVGID_39_" gradientUnits="userSpaceOnUse" x1="1935.4309" y1="1298.4091" x2="1935.4309" y2="1086.2311">
			<stop  offset="0" style="stop-color:#B31A8F"/>
			<stop  offset="1" style="stop-color:#FE117E"/>
		</linearGradient>
		<path class="st60" d="M1935.7,1298.4c-5.3,0-10.4-0.5-14.8-1.5l4.4-23.6l-5-0.9c-11.3-2-21.9-6.1-31.4-12.4l-4.1-2.7l-13.1,19.2
			c-4.3-2.7-8.8-6.5-12.9-11c-2.9-3.1-5.5-6.4-7.5-9.5l18.5-12.6l-3.1-4.2c-7-9.4-11.9-20-14.6-31.5l-1.1-4.7l-20.1,3.7
			c-2-8.6-2-20.2,0-28.9l18.9,3.5l0.7-5.2c1.6-12,5.8-23.4,12.3-33.8l2.6-4.1l-14.2-9.7c4.7-7.5,12.9-15.7,20.5-20.5l9.2,13.6
			l4.2-3.1c10-7.4,21.4-12.3,33.7-14.8l4.9-1l-2.8-15.2c4.2-1,9.1-1.5,14.2-1.5c5.3,0,10.4,0.5,14.7,1.5l-2.8,15.1l4.9,1
			c12.3,2.4,23.7,7.4,33.8,14.7l4.2,3.1l9.3-13.5c7.5,4.7,15.7,12.9,20.4,20.5l-14.1,9.7l2.6,4.1c6.5,10.3,10.6,21.7,12.3,33.8
			l0.7,5.2l18.9-3.5c2,8.6,2,20.2,0,28.9l-20.1-3.7l-1.1,4.7c-2.6,11.4-7.5,22-14.6,31.5l-3.1,4.2l18.5,12.7
			c-4.7,7.5-12.9,15.6-20.5,20.4l-13.1-19.1l-4.1,2.7c-3.2,2.1-6.6,4-10.3,5.7c-6.8,3.2-13.9,5.4-21.2,6.7l-5,0.9l4.4,23.6
			C1945.8,1297.9,1940.9,1298.4,1935.7,1298.4z M1935.4,1141.8c-3.1,0-6.3,0.3-9.4,1c-6.9,1.4-13.4,4.4-19,8.7
			c-4.8,3.7-9,8.5-12,13.8c-3.2,5.8-5.2,12.4-5.8,19c-0.1,1.1-0.2,2.5-0.2,3.8c0,4,0.5,8.1,1.6,12.1c0.2,0.6,0.2,1,0.3,1.3
			c1.7,5.8,4.6,11.2,8.5,16c3.4,4.1,7.4,7.6,11.9,10.4c5.1,3,10.6,5,16.3,5.9c2.4,0.4,5,0.7,7.6,0.7c2.6,0,5.1-0.2,7.7-0.7
			c5.8-0.9,11.3-2.9,16.2-5.9c4.5-2.7,8.5-6.2,11.9-10.3c4-4.9,6.8-10.3,8.6-16.2c1.3-4.3,1.9-8.7,1.9-13.1c0-1.3-0.1-2.6-0.2-3.8
			c-0.5-6.6-2.5-13.2-5.7-18.9c-3.2-5.5-7.2-10.1-12-13.8c-5.5-4.3-12.1-7.3-18.9-8.7C1941.7,1142.1,1938.5,1141.8,1935.4,1141.8z"
			/>
		<polygon class="st58" points="2026.2,1130.2 2026.2,1152.2 2021.1,1155.6 2012.3,1139.7 		"/>
		<path class="st61" d="M2026.2,1276.5l0-22c0,0-13,20.7-28.6,28.6l0,22C1997.5,1305.1,2019.7,1294.3,2026.2,1276.5z"/>
		<path class="st58" d="M1844.6,1276.5l0-22c0,0,8.5,17.7,28.6,28.6l0,22C1873.2,1305.1,1858,1299.8,1844.6,1276.5z"/>
		<path class="st58" d="M1827.2,1234.6l0-22c0,0-5.9-20.3,0-40.5C1827.2,1172.1,1813.9,1202.2,1827.2,1234.6z"/>
		<polygon class="st58" points="1844.6,1152.2 1844.6,1130.2 1858.6,1139.7 1849.6,1155.6 		"/>
		<linearGradient id="SVGID_40_" gradientUnits="userSpaceOnUse" x1="1916.5309" y1="1098.911" x2="1916.5309" y2="1084.1683">
			<stop  offset="0" style="stop-color:#3D2CB0"/>
			<stop  offset="1" style="stop-color:#0355C7"/>
		</linearGradient>
		<polygon class="st62" points="1915.1,1095.9 1915.2,1084.2 1917.9,1098.9 1915.7,1098.9 		"/>
		<linearGradient id="SVGID_41_" gradientUnits="userSpaceOnUse" x1="1954.2876" y1="1099.3521" x2="1954.2876" y2="1084.1683">
			<stop  offset="0" style="stop-color:#3D2CB0"/>
			<stop  offset="1" style="stop-color:#0355C7"/>
		</linearGradient>
		<polygon class="st63" points="1955.7,1084.2 1955.7,1095.9 1955,1099.4 1952.9,1098.9 		"/>
		<linearGradient id="SVGID_42_" gradientUnits="userSpaceOnUse" x1="1991.1259" y1="1305.1196" x2="1991.1259" y2="1264.3463">
			<stop  offset="0" style="stop-color:#8B8BE0"/>
			<stop  offset="1" style="stop-color:#A177B7"/>
		</linearGradient>
		<polygon class="st64" points="1997.5,1305.1 1997.6,1283.1 1984.7,1264.3 1984.7,1286.3 		"/>
		<linearGradient id="SVGID_43_" gradientUnits="userSpaceOnUse" x1="2033.6722" y1="1234.5721" x2="2033.6722" y2="1208.8881">
			<stop  offset="0" style="stop-color:#8B8BE0"/>
			<stop  offset="1" style="stop-color:#A177B7"/>
		</linearGradient>
		<polygon class="st65" points="2023.8,1230.9 2023.8,1208.9 2043.6,1212.6 2043.5,1234.6 		"/>
		<linearGradient id="SVGID_44_" gradientUnits="userSpaceOnUse" x1="1879.6893" y1="1305.1196" x2="1879.6893" y2="1264.2969">
			<stop  offset="0" style="stop-color:#8B8BE0"/>
			<stop  offset="1" style="stop-color:#A177B7"/>
		</linearGradient>
		<polygon class="st66" points="1886.1,1286.3 1886.2,1264.3 1873.3,1283.1 1873.2,1305.1 		"/>
		<linearGradient id="SVGID_45_" gradientUnits="userSpaceOnUse" x1="1837.1185" y1="1234.5721" x2="1837.1185" y2="1208.8881">
			<stop  offset="0" style="stop-color:#8B8BE0"/>
			<stop  offset="1" style="stop-color:#A177B7"/>
		</linearGradient>
		<polygon class="st67" points="1847,1230.9 1847,1208.9 1827.2,1212.6 1827.2,1234.6 		"/>
		<path class="st68" d="M1951.4,1277.5l4.3,23c-14.3,6.5-35.2,1.4-40.5,0l4.3-23.1c-12.1-2.1-23.4-6.6-33.3-13.1l-12.9,18.9
			c-6.1-2.9-12.7-8.2-18.2-14.2l40.5-70.2c0.1,0.3,0.2,0.7,0.3,1c1.6,5.3,4.2,10.2,7.6,14.4c3,3.7,6.6,6.8,10.7,9.3
			c4.4,2.6,9.2,4.4,14.5,5.2c2.2,0.4,4.5,0.6,6.8,0.6c2.4,0,4.6-0.2,6.8-0.6c5.2-0.9,10.2-2.7,14.5-5.3c4.1-2.5,7.6-5.6,10.7-9.2
			l6.4,56.2C1966.7,1273.7,1959.3,1276.1,1951.4,1277.5z"/>
		<path class="st58" d="M1955.7,1300.5l0,22c0,0-14.6,7-40.5,0l0-22C1915.2,1300.5,1930.5,1305.1,1955.7,1300.5z"/>
	</g>
	<g>
		<defs>
			<path id="SVGID_46_" d="M1957.8,851.7l-90,51.3l11.9,149.4l14.5,135.7c0,22.8,18.5,41.2,41.2,41.2c18.7,0,34.5-12.5,39.5-29.5
				l0.1,0l73.1-108l57.7-204.9L1957.8,851.7z"/>
		</defs>
		<clipPath id="SVGID_47_">
			<use xlink:href="#SVGID_46_"  style="overflow:visible;"/>
		</clipPath>
		<g class="st69">
			
				<linearGradient id="SVGID_48_" gradientUnits="userSpaceOnUse" x1="1902.6525" y1="1207.6852" x2="1902.6525" y2="829.1849" gradientTransform="matrix(0.9922 0.1248 -0.1248 0.9922 187.1949 -176.7172)">
				<stop  offset="0" style="stop-color:#DBCCFF"/>
				<stop  offset="1" style="stop-color:#D1BBFF"/>
			</linearGradient>
			<path class="st70" d="M2030.8,959.9c1.4-40.3-21.2-71.6-21.2-71.6l-13.7-1.7l-3.4,58.2c-13.6,14.6-30.8,16.6-30.8,16.6l0-0.1
				c0,0-16.1-6.1-25.7-23.7l11.1-57.2l-13.7-1.7c0,0-29.7,24.7-38.3,64.1c0,0-2,13.3-1.8,14.7c1.1,7.5,8.5,20.1,30.4,32.1l-14.7,185
				c-12.6,6.6-21.9,19-23.8,34.2c-3.1,24.7,14.4,47.2,39.1,50.3c24.7,3.1,47.2-14.4,50.3-39.1c1.9-15.2-4-29.5-14.6-39l31.5-182.8
				c23.7-6.1,34.2-16,37.4-23.5C2029.6,973,2030.8,959.9,2030.8,959.9z M1939.7,1237.5l-25-3.1l-9.8-23.2l15.2-20.1l25,3.1l9.8,23.2
				L1939.7,1237.5z"/>
			
				<linearGradient id="SVGID_49_" gradientUnits="userSpaceOnUse" x1="1902.6304" y1="1222.4515" x2="1902.6304" y2="843.9512" gradientTransform="matrix(0.9922 0.1248 -0.1248 0.9922 187.1949 -176.7172)">
				<stop  offset="0" style="stop-color:#B5A6E7"/>
				<stop  offset="1" style="stop-color:#7760BF"/>
			</linearGradient>
			<path class="st71" d="M2029,974.6c1.4-40.3-21.2-71.6-21.2-71.6l-13.7-1.7l-3.4,58.2c-13.6,14.6-30.8,16.6-30.8,16.6l0-0.1
				c0,0-16.1-6.1-25.7-23.7l11.1-57.2l-13.7-1.7c0,0-29.7,24.7-38.3,64.1c0,0,2.6,32.5,28.6,46.7l-14.7,185
				c-12.6,6.6-21.9,19-23.8,34.2c-3.1,24.7,14.4,47.2,39.1,50.3c24.7,3.1,47.2-14.4,50.3-39.1c1.9-15.2-4-29.5-14.6-39l31.5-182.8
				C2018.4,1005.4,2029,974.6,2029,974.6z M1937.8,1252.2l-25-3.1l-9.8-23.2l15.2-20.1l25,3.1l9.8,23.2L1937.8,1252.2z"/>
			
				<rect x="1932" y="879.9" transform="matrix(0.1248 -0.9922 0.9922 0.1248 817.4572 2700.3782)" class="st72" width="14.8" height="13.8"/>
			
				<rect x="1994.4" y="887.9" transform="matrix(0.1248 -0.9922 0.9922 0.1248 864.2562 2769.3247)" class="st72" width="14.8" height="13.8"/>
			
				<rect x="1918.9" y="1230.7" transform="matrix(0.1248 -0.9922 0.9922 0.1248 452.3878 2999.3499)" class="st72" width="14.8" height="25.2"/>
			<g>
				
					<linearGradient id="SVGID_50_" gradientUnits="userSpaceOnUse" x1="1902.632" y1="1128.3516" x2="1902.632" y2="968.8065" gradientTransform="matrix(0.9922 0.1248 -0.1248 0.9922 187.1949 -176.7172)">
					<stop  offset="0" style="stop-color:#B5A6E7"/>
					<stop  offset="1" style="stop-color:#7760BF"/>
				</linearGradient>
				<path class="st73" d="M1931,1024.3l-12.4,150.2c15,10.5,30.8,3.9,30.8,3.9l26.6-148.5C1954.9,1015.6,1931,1024.3,1931,1024.3z
					 M1944.2,1176.4c-2.7,0.4-6.5,0.7-10.8,0.2c-3.4-0.4-6.6-1.3-9.7-2.7l10.9-148c4.5-0.7,11.8-1.4,20-0.4
					c6.2,0.8,11.9,2.4,17.3,4.9L1944.2,1176.4z"/>
				<path class="st72" d="M1944.2,1176.4l5.1,1.9c0,0-14.3,7.7-30.8-3.9l5.2-0.6C1923.8,1173.9,1932.8,1178.2,1944.2,1176.4z"/>
				
					<linearGradient id="SVGID_51_" gradientUnits="userSpaceOnUse" x1="1879.9907" y1="972.0002" x2="1925.2732" y2="972.0002" gradientTransform="matrix(0.9922 0.1248 -0.1248 0.9922 187.1949 -176.7172)">
					<stop  offset="0" style="stop-color:#8B8BE0"/>
					<stop  offset="1" style="stop-color:#A177B7"/>
				</linearGradient>
				<path class="st74" d="M1931,1024.3l3.7,1.7c0,0,16.6-4.1,37.3,4.5l3.9-0.6c0,0-6.7-6-21.8-7.9
					C1938.9,1020.1,1931,1024.3,1931,1024.3z"/>
			</g>
			
				<linearGradient id="SVGID_52_" gradientUnits="userSpaceOnUse" x1="1902.6316" y1="982.5132" x2="1902.6316" y2="955.1018" gradientTransform="matrix(0.9922 0.1248 -0.1248 0.9922 187.1949 -176.7172)">
				<stop  offset="0" style="stop-color:#FFFFFF"/>
				<stop  offset="1" style="stop-color:#A177B7"/>
			</linearGradient>
			<path class="st75" d="M1921.9,1004.1c0,0,31.5,12.8,67.8,8.6l-4,23.4c0,0-3.3-14.1-27.2-18.3c-28-5-38.1,13.7-38.1,13.7
				L1921.9,1004.1z"/>
			
				<linearGradient id="SVGID_53_" gradientUnits="userSpaceOnUse" x1="1926.5842" y1="1144.6376" x2="1926.5842" y2="968.7532" gradientTransform="matrix(0.9922 0.1248 -0.1248 0.9922 187.1949 -176.7172)">
				<stop  offset="0" style="stop-color:#000000"/>
				<stop  offset="1" style="stop-color:#FFFFFF"/>
			</linearGradient>
			<path class="st76" d="M1985.7,1036.1c-3-7.3-9.1-11.4-9.1-11.4l-29.7,173.5l11.3-2.8L1985.7,1036.1z"/>
			<path class="st24" d="M1985.7,1036.1c0,0-17.6,14.6-5.9,34.2L1985.7,1036.1z"/>
		</g>
	</g>
</g>
<g>
	<path class="st12" d="M2290.7,1478.5c-4.8-104.8,142.6-236.2,269.5-214.4c134.1,23,251.6,314.1,124.6,412.2
		C2557.7,1774.3,2295.6,1584.7,2290.7,1478.5z"/>
	<g>
		
			<linearGradient id="SVGID_54_" gradientUnits="userSpaceOnUse" x1="2595.0376" y1="1010.9921" x2="2731.1948" y2="1010.9921" gradientTransform="matrix(0.8157 0.5784 -0.5784 0.8157 1119.8361 -694.7175)">
			<stop  offset="0" style="stop-color:#1C257B"/>
			<stop  offset="1" style="stop-color:#6A2C9A"/>
		</linearGradient>
		<path class="st77" d="M2609.5,1690.6c0,0,74.9-97.9,195.9-41.5c0,0-57.1,104-183.3,51.4L2609.5,1690.6z"/>
		<path class="st21" d="M2805.4,1649.1l-195.9,41.5l18.7,8.1C2628.2,1698.7,2734.9,1744,2805.4,1649.1z"/>
	</g>
	<g>
		
			<linearGradient id="SVGID_55_" gradientUnits="userSpaceOnUse" x1="2266.0889" y1="1942.6532" x2="2266.0889" y2="1716.0255" gradientTransform="matrix(0.9711 -0.2386 0.2386 0.9711 -300.6547 359.0624)">
			<stop  offset="0" style="stop-color:#1C257B"/>
			<stop  offset="1" style="stop-color:#6A2C9A"/>
		</linearGradient>
		<path class="st78" d="M2404.5,1694.8c0,0-129.3-32.2-173.4-190.8c0,0,116.3-29.9,202.7,149.3L2404.5,1694.8z"/>
		<path class="st21" d="M2241.1,1511.8l173.4,163.3l-32.6,4.3C2381.9,1679.4,2268.2,1640.2,2241.1,1511.8z"/>
	</g>
	<g>
		
			<radialGradient id="SVGID_56_" cx="836.4131" cy="1779.2142" r="55.9477" gradientTransform="matrix(-0.9201 0.3918 0.3918 0.9201 2781.2747 -385.502)" gradientUnits="userSpaceOnUse">
			<stop  offset="0" style="stop-color:#3996F7"/>
			<stop  offset="1" style="stop-color:#6840D5"/>
		</radialGradient>
		<path class="st79" d="M2640.8,1653.2c0,0,29.4-100.1,117.9-89.6C2758.7,1563.6,2748,1665.7,2640.8,1653.2z"/>
		<path class="st21" d="M2758.7,1563.6l-113.9,83C2644.8,1646.6,2728.9,1671.3,2758.7,1563.6z"/>
	</g>
	<path class="st12" d="M2638.6,1266c-11.2,11.8,61.4,115.6,88.1,119.3c26.7,3.7,24.4-61,6.7-90.6
		C2715.7,1265.1,2653.1,1250.8,2638.6,1266z"/>
	<g>
		<linearGradient id="SVGID_57_" gradientUnits="userSpaceOnUse" x1="2365.9219" y1="1611.1667" x2="2673.0046" y2="1611.1667">
			<stop  offset="0" style="stop-color:#1C257B"/>
			<stop  offset="1" style="stop-color:#6A2C9A"/>
		</linearGradient>
		<path class="st80" d="M2519.5,1457.6c-84.8,0-153.5,68.7-153.5,153.5c0,84.8,68.7,153.5,153.5,153.5
			c84.8,0,153.5-68.7,153.5-153.5C2673,1526.4,2604.3,1457.6,2519.5,1457.6z M2519.5,1708.7c-53.9,0-97.5-43.7-97.5-97.5
			c0-53.9,43.7-97.5,97.5-97.5c53.9,0,97.5,43.7,97.5,97.5C2617,1665,2573.3,1708.7,2519.5,1708.7z"/>
		<linearGradient id="SVGID_58_" gradientUnits="userSpaceOnUse" x1="2358.2898" y1="1639.1846" x2="2679.0759" y2="1639.1846">
			<stop  offset="0" style="stop-color:#1C257B"/>
			<stop  offset="1" style="stop-color:#6A2C9A"/>
		</linearGradient>
		<path class="st81" d="M2369.5,1522.6c0,0-28.2,68.1,4.9,138.9c0,0,54.4,100.7,145.1,103.2c90.7,2.4,145.1-103.2,145.1-103.2
			s31.8-78.9,1.3-147.9l-45.1,0.8c0,0,24.9,204.6-101.3,194.3c-126.3-10.2-114.9-152.5-114.9-152.5L2369.5,1522.6z"/>
		<radialGradient id="SVGID_59_" cx="2586.7866" cy="1434.2067" r="159.5042" gradientUnits="userSpaceOnUse">
			<stop  offset="0" style="stop-color:#39AEF7"/>
			<stop  offset="1" style="stop-color:#6840D5"/>
		</radialGradient>
		<path class="st82" d="M2519.5,1417.4c-88.1,0-159.5,71.4-159.5,159.5c0,88.1,71.4,159.5,159.5,159.5
			c88.1,0,159.5-71.4,159.5-159.5C2678.9,1488.9,2607.6,1417.4,2519.5,1417.4z M2519.5,1683.7c-58.8,0-106.7-47.9-106.7-106.8
			c0-58.8,47.9-106.7,106.7-106.7c58.9,0,106.7,47.9,106.7,106.7C2626.2,1635.8,2578.3,1683.7,2519.5,1683.7z"/>
		<radialGradient id="SVGID_60_" cx="2531.166" cy="1445.5193" r="227.6191" gradientUnits="userSpaceOnUse">
			<stop  offset="0" style="stop-color:#3996F7"/>
			<stop  offset="1" style="stop-color:#6840D5"/>
		</radialGradient>
		<path class="st83" d="M2674.4,1539.2c-10.3-42.7-38-78.7-75-100.2c-23.5-13.7-50.9-21.6-80-21.6c-88,0-159.5,71.6-159.5,159.5
			c0,17.3,2.7,34,7.9,49.6c13.7,41.9,44.2,76.2,83.6,94.7c20.6,9.9,43.7,15.3,68,15.3c88,0,159.5-71.6,159.5-159.5
			C2678.9,1563.9,2677.4,1551.3,2674.4,1539.2z M2519.5,1683.7c-6.7,0-13.4-0.6-19.8-1.8c-45.4-8.6-80.7-45.9-86.2-92.3
			c-0.5-4.1-0.8-8.3-0.8-12.6c0-58.8,47.9-106.7,106.7-106.7c12,0,23.6,2,34.4,5.7c42,14.3,72.3,54.2,72.3,101c0,0.6,0,1.1-0.1,1.7
			C2625.2,1636.7,2577.7,1683.7,2519.5,1683.7z"/>
		<linearGradient id="SVGID_61_" gradientUnits="userSpaceOnUse" x1="2519.4568" y1="1683.6768" x2="2519.4568" y2="1470.2145">
			<stop  offset="0" style="stop-color:#60B3F7"/>
			<stop  offset="1" style="stop-color:#364AC2"/>
		</linearGradient>
		<path class="st84" d="M2519.5,1470.2c-58.8,0-106.7,47.9-106.7,106.7c0,58.9,47.9,106.8,106.7,106.8
			c58.9,0,106.7-47.9,106.7-106.8C2626.2,1518.1,2578.3,1470.2,2519.5,1470.2z M2519.5,1678.3c-56,0-101.3-45.4-101.3-101.4
			c0-56,45.4-101.3,101.3-101.3s101.3,45.4,101.3,101.3C2620.8,1632.9,2575.4,1678.3,2519.5,1678.3z"/>
		<path class="st85" d="M2499.7,1681.8l-48.2,39.3c-39.4-18.5-69.9-52.8-83.6-94.7l45.6-37
			C2418.9,1635.9,2454.3,1673.3,2499.7,1681.8z"/>
		<path class="st85" d="M2626.1,1578.6c0.1-0.6,0.1-1.1,0.1-1.7c0-46.8-30.3-86.7-72.3-101l45.6-36.9c37,21.5,64.6,57.5,75,100.2
			L2626.1,1578.6z"/>
		<radialGradient id="SVGID_62_" cx="2552.6084" cy="1699.0565" r="57.3963" gradientUnits="userSpaceOnUse">
			<stop  offset="0" style="stop-color:#3996F7"/>
			<stop  offset="1" style="stop-color:#6840D5"/>
		</radialGradient>
		<path class="st86" d="M2467.4,1727.7c0,0,75.1,22.3,158.8-32.2C2626.2,1695.5,2571.1,1757.9,2467.4,1727.7z"/>
		<path class="st85" d="M2451.5,1721.2l8.4,31.6c0,0-62.5-19.9-89.8-101.4l-2.2-24.8C2367.9,1626.5,2385.7,1689.6,2451.5,1721.2z"/>
	</g>
	<polygon class="st13" points="2733.2,1509.7 2766.5,1458.5 2784.2,1470.7 2748.8,1518.6 	"/>
	<polygon class="st13" points="2347.8,1418.7 2399.8,1378.2 2412.5,1395.7 2364.8,1433.4 	"/>
	<polygon class="st15" points="2318.2,1676.1 2280.2,1695.3 2270.7,1676.2 2309.5,1653.5 	"/>
	<polygon class="st16" points="2572,1379.9 2599.2,1409.8 2610,1397.4 2584.2,1369.1 	"/>
	<g>
		<linearGradient id="SVGID_63_" gradientUnits="userSpaceOnUse" x1="2546.533" y1="1639.3693" x2="2546.533" y2="1443.7369">
			<stop  offset="0" style="stop-color:#B31A8F"/>
			<stop  offset="1" style="stop-color:#FE117E"/>
		</linearGradient>
		<path class="st87" d="M2405.8,1552.6l34.7-59.9l75.2,59.8c0,0,85.3-86.9,152.8-108.8l18.9,77.1c0,0-85.3,20.7-165.2,118.5
			L2405.8,1552.6z"/>
		<linearGradient id="SVGID_64_" gradientUnits="userSpaceOnUse" x1="2546.533" y1="1666.9944" x2="2546.533" y2="1471.3616">
			<stop  offset="0" style="stop-color:#63004A"/>
			<stop  offset="1" style="stop-color:#BA0065"/>
		</linearGradient>
		<path class="st88" d="M2405.8,1580.3l34.7-59.9l75.2,59.8c0,0,85.3-86.9,152.8-108.8l18.9,77.1c0,0-85.3,20.7-165.2,118.5
			L2405.8,1580.3z"/>
		<polygon class="st89" points="2668.4,1443.7 2668.4,1471.4 2687.3,1548.5 2687.3,1513.6 		"/>
		<polygon class="st89" points="2440.4,1492.7 2440.4,1520.4 2405.8,1580.3 2405.8,1552.6 		"/>
		<path class="st24" d="M2668.4,1443.7v27.6c-19.9,7.1-40.7,18.7-60.2,31.8c-50.3,33.7-92.6,77.1-92.6,77.1v-27.6
			c25-25.1,47.9-44.7,67.9-59.8c19.3-14.6,35.9-25.1,49.2-32.5C2655.4,1447.5,2668.4,1443.7,2668.4,1443.7z"/>
		<path class="st24" d="M2640.8,1483.2l-32.5,19.9l-10.7-20.5c21.9-14.9,21.9-14.9,35.1-22.4L2640.8,1483.2z"/>
	</g>
</g>
<g>
	<path class="st12" d="M1769.7,2119.2c-4.6-100.8,137.3-227.4,259.4-206.4c129.1,22.2,242.2,302.4,119.9,396.8
		C2026.7,2404,1774.4,2221.5,1769.7,2119.2z"/>
	<g>
		
			<linearGradient id="SVGID_65_" gradientUnits="userSpaceOnUse" x1="2283.6111" y1="1518.4337" x2="2283.6111" y2="1326.2961" gradientTransform="matrix(0.4389 0.8985 -0.8985 0.4389 2391.9373 -601.2992)">
			<stop  offset="0" style="stop-color:#1C257B"/>
			<stop  offset="1" style="stop-color:#6A2C9A"/>
		</linearGradient>
		<path class="st90" d="M2044.1,2146c0,0,3.5-112.9,126.9-177.9c0,0,36,103.5-97,207.2L2044.1,2146z"/>
		<path class="st21" d="M2166.4,1977.7l-104.2,173l-9.4-26.2C2052.8,2124.5,2064.9,2023.3,2166.4,1977.7z"/>
	</g>
	<g>
		
			<radialGradient id="SVGID_66_" cx="980.4781" cy="1939.6843" r="88.0629" gradientTransform="matrix(-0.9492 -0.3147 -0.3147 0.9492 3468.949 501.5394)" gradientUnits="userSpaceOnUse">
			<stop  offset="0" style="stop-color:#3996F7"/>
			<stop  offset="1" style="stop-color:#6840D5"/>
		</radialGradient>
		<path class="st91" d="M1950.9,2161.6c0,0,29.3-100.3-70-154.7c0,0-42.4,91.2,57,151L1950.9,2161.6z"/>
		<path class="st21" d="M1880.9,2006.9l70,154.7l-14.9-8.7C1935.9,2152.9,1851.5,2102.7,1880.9,2006.9z"/>
	</g>
	<g>
		
			<radialGradient id="SVGID_67_" cx="1893.2351" cy="1949.6459" r="57.8442" gradientTransform="matrix(0.9681 0.2507 -0.2507 0.9681 794.0936 -293.6547)" gradientUnits="userSpaceOnUse">
			<stop  offset="0" style="stop-color:#3996F7"/>
			<stop  offset="1" style="stop-color:#6840D5"/>
		</radialGradient>
		<path class="st92" d="M2080,2130.6c0,0,19.6-65.8,93.7-60.4c0,0-9.1,65.5-85.2,63L2080,2130.6z"/>
		<path class="st21" d="M2173.8,2070.2l-93.7,60.4l11.3,0.5C2091.4,2131.1,2155.8,2133.5,2173.8,2070.2z"/>
	</g>
	<polygon class="st13" points="1761.9,2023.7 1791.5,1978.2 1807.3,1989 1775.8,2031.6 	"/>
	<polygon class="st15" points="2124.7,1956.7 2103.8,1984.6 2094.9,1977.5 2114,1951.6 	"/>
	<polygon class="st15" points="1947,1995 1913.1,2003.4 1910.8,1992.2 1941.9,1984.2 	"/>
	<polygon class="st16" points="2013.2,1941.1 2009.6,1898.6 2024.3,1890 2035.6,1941.6 	"/>
	<g>
		<g>
			<g>
				
					<radialGradient id="SVGID_68_" cx="1787.6196" cy="2261.7422" r="71.7786" gradientTransform="matrix(0.9942 -0.1077 0.1077 0.9942 -160.8252 185.4869)" gradientUnits="userSpaceOnUse">
					<stop  offset="0" style="stop-color:#A157FF"/>
					<stop  offset="1" style="stop-color:#63399A"/>
				</radialGradient>
				<path class="st93" d="M1909.6,2235.2l-1.7,2.6l8.3,32.5c0.1,0.5,0.2,0.9,0.3,1.5c1.2,7.1,1.1,16.5,0.3,20.4l-3.6-1l-24.3-6.6
					l-25.3-6.9l-48.9,25.3c-1.7-3.2-3.7-13.9-4.1-22.4l0-0.5c0,0,0,0,0-0.1l1.4-32l-2.1-2l-37.1-36.7c-1.9-5.9-3.1-9.3-1.6-14.7
					l53.6-5.7l21.8-2.3l36.4-3.9l53.5-5.7c1.9,4.4,2.9,7.7,1.6,14.7L1909.6,2235.2z"/>
				
					<radialGradient id="SVGID_69_" cx="1787.5957" cy="2239.0903" r="81.1072" gradientTransform="matrix(0.9942 -0.1077 0.1077 0.9942 -160.8252 185.4869)" gradientUnits="userSpaceOnUse">
					<stop  offset="0" style="stop-color:#A157FF"/>
					<stop  offset="1" style="stop-color:#63399A"/>
				</radialGradient>
				<path class="st94" d="M1909.8,2235.8c-0.6,0.6-1.2,1.3-1.9,2l6.5,39.9l2.3,14.4c-1.2,0-2.3,0-3.4-0.1c0,0-0.2,0-0.8,0
					c-2.4-0.1-4.8-0.4-7.1-0.7c-1.4-0.1-2.9-0.4-4.6-0.8c-1-0.2-2.1-0.4-3.3-0.7c-1.2-0.3-2.4-0.6-3.7-1c-1.2-0.3-2.4-0.7-3.7-1
					c-0.1,0-0.3-0.1-0.4-0.1c-0.4-0.2-0.8-0.3-1.1-0.4c-9.1-2.9-17.4-6.7-25.1-9.8c-15.2,11.2-28.4,17.4-48.9,25.3l-0.7-14.6
					l-1.9-40.4c-0.7-0.5-1.4-1-2-1.5c-16-12-28.6-22.3-37.1-37.3l6.6-2.5l44.9-17l0.4-0.9l11.5-23l12.8-25.4l33.9,42.2l0.6,0.8
					l46.5,7.1l7.9,1.2C1930.8,2210.3,1922.9,2221.1,1909.8,2235.8z"/>
				
					<radialGradient id="SVGID_70_" cx="1780.7468" cy="2174.5635" r="93.4398" gradientTransform="matrix(0.9942 -0.1077 0.1077 0.9942 -160.8252 185.4869)" gradientUnits="userSpaceOnUse">
					<stop  offset="0" style="stop-color:#FF81FF"/>
					<stop  offset="1" style="stop-color:#9552FF"/>
				</radialGradient>
				<path class="st95" d="M1930.2,2190.5c-8.9,13.9-23.9,32.5-23.9,32.5s1.5,5.1,3.3,12.2c0.1,0.2,0.1,0.4,0.2,0.6
					c2.9,11.3,6.6,27.5,6.7,36c0,3-0.3,5-1.3,5.7c-0.2,0.1-0.5,0.2-0.7,0.3c-1.1,0.4-2.7,0.4-4.7,0.2c-0.1,0-0.2,0-0.3,0
					c-0.9-0.1-1.8-0.2-2.7-0.4c-1.4-0.2-2.8-0.5-4.2-0.8c-4-1-8.6-2.3-13.2-3.8l0,0c-11.1-3.6-22.4-7.9-26.1-9.4
					c-0.9-0.3-1.3-0.5-1.3-0.5s-38.8,26-48.1,25.4c-0.3,0-0.6,0-0.9-0.1c-1.2-0.4-2-3.6-2.5-8.2c0,0,0,0,0-0.1
					c-1-8.9-0.9-23.1-0.6-33.5c0-0.1,0-0.3,0-0.5c0.2-7.3,0.5-12.7,0.5-12.7s-19.5-14.8-31-26.5c-5.1-5.2-8.6-9.8-8.2-12.2
					c1.1-6.8,51.5-19.6,51.5-19.6s3.5-9.6,8-20.3l0-0.1c5.6-13.3,12.8-28.4,16.7-28.8c7.6-0.8,34.5,43,34.5,43s53.9,3.1,54.5,8.4
					C1936.8,2179.3,1934.1,2184.4,1930.2,2190.5z"/>
			</g>
			
				<linearGradient id="SVGID_71_" gradientUnits="userSpaceOnUse" x1="1787.3586" y1="2300.4802" x2="1835.2465" y2="2300.4802" gradientTransform="matrix(0.9942 -0.1077 0.1077 0.9942 -160.8252 185.4869)">
				<stop  offset="0" style="stop-color:#8B8BE0"/>
				<stop  offset="1" style="stop-color:#A177B7"/>
			</linearGradient>
			<path class="st96" d="M1913.4,2292.1c0,0-0.2,0-0.8,0c-1.2,0-3.5-0.1-7.1-0.7c-1.4-0.1-2.9-0.4-4.6-0.8c-1-0.2-2.1-0.4-3.3-0.7
				c-1.2-0.3-2.4-0.6-3.7-1c-1.2-0.3-2.4-0.7-3.7-1c-0.1,0-0.3-0.1-0.4-0.1c-0.3-0.1-0.7-0.2-1.1-0.3l0,0
				c-6.9-2.1-15.3-5.3-25.1-9.8l-1.6-14.7c0,0,0.5,0.2,1.3,0.5c3.6,1.6,14.4,6,26.1,9.6c4.4,1.4,8.9,2.6,13.2,3.5
				c1.4,0.3,2.8,0.6,4.2,0.8c0.9,0.1,1.8,0.3,2.7,0.4c0.1,0,0.2,0,0.3,0c0.2,0.1,0.5,0.1,0.7,0.1l2.6,13.2L1913.4,2292.1z"/>
		</g>
		<path class="st97" d="M1938.2,2191.7c-7.4,18.6-15.3,29.4-28.4,44.1c2.9,11.3,6.6,27.5,6.7,36c1.2,7.1,1.1,16.5,0.3,20.4
			c-1.2,0-2.3,0-3.4-0.1c0,0-0.2,0-0.8,0c-1.2,0-3.5-0.1-7.1-0.7c-1.4-0.1-2.9-0.4-4.6-0.8c-1-0.2-2.1-0.4-3.3-0.7
			c-1.2-0.3-2.4-0.6-3.7-1c-1.2-0.3-2.4-0.7-3.7-1c-0.1,0-0.3-0.1-0.4-0.1c-0.3-0.1-0.7-0.2-1.1-0.3l0,0l0.1-2.9l0.5-11.4l0-0.2l0,0
			l-42.8-86.3l-10.2-20.7l-5.5-11.2l0-0.1c5.6-13.3,12.8-28.4,16.7-28.8c7.6-0.8,34.5,43,34.5,43s53.9,3.1,54.5,8.4
			C1938.5,2181.4,1939.5,2184.7,1938.2,2191.7z"/>
	</g>
	<g>
		<g>
			<g>
				
					<radialGradient id="SVGID_72_" cx="1166.5785" cy="2194.4658" r="71.7785" gradientTransform="matrix(-0.9942 -0.1077 -0.1077 0.9942 3554.6174 185.4869)" gradientUnits="userSpaceOnUse">
					<stop  offset="0" style="stop-color:#A157FF"/>
					<stop  offset="1" style="stop-color:#63399A"/>
				</radialGradient>
				<path class="st98" d="M2108.8,2235.2l1.7,2.6l-8.3,32.5c-0.1,0.5-0.2,0.9-0.3,1.5c-1.3,7.1-1.1,16.5-0.3,20.4l3.6-1l24.3-6.6
					l25.3-6.9l48.9,25.3c1.7-3.2,3.7-13.9,4.1-22.4l0-0.5c0,0,0,0,0-0.1l-1.4-32l2.1-2l37.1-36.7c1.9-5.9,3.1-9.3,1.6-14.7
					l-53.6-5.7l-21.8-2.3l-36.4-3.9l-53.5-5.7c-1.9,4.4-2.9,7.7-1.6,14.7L2108.8,2235.2z"/>
				
					<radialGradient id="SVGID_73_" cx="1166.5548" cy="2171.8142" r="81.1071" gradientTransform="matrix(-0.9942 -0.1077 -0.1077 0.9942 3554.6174 185.4869)" gradientUnits="userSpaceOnUse">
					<stop  offset="0" style="stop-color:#A157FF"/>
					<stop  offset="1" style="stop-color:#63399A"/>
				</radialGradient>
				<path class="st99" d="M2108.7,2235.8c0.6,0.6,1.2,1.3,1.9,2l-6.5,39.9l-2.3,14.4c1.2,0,2.3,0,3.4-0.1c0,0,0.2,0,0.8,0
					c2.4-0.1,4.8-0.4,7.1-0.7c1.4-0.1,2.9-0.4,4.6-0.8c1-0.2,2.1-0.4,3.3-0.7c1.2-0.3,2.4-0.6,3.7-1c1.2-0.3,2.4-0.7,3.7-1
					c0.1,0,0.3-0.1,0.4-0.1c0.4-0.2,0.8-0.3,1.1-0.4c9.1-2.9,17.4-6.7,25.1-9.8c15.2,11.2,28.4,17.4,48.9,25.3l0.7-14.6l1.9-40.4
					c0.7-0.5,1.4-1,2-1.5c16-12,28.6-22.3,37.1-37.3l-6.6-2.5l-44.9-17l-0.4-0.9l-11.5-23l-12.8-25.4l-33.9,42.2l-0.6,0.8l-46.5,7.1
					l-7.9,1.2C2087.7,2210.3,2095.6,2221.1,2108.7,2235.8z"/>
				
					<radialGradient id="SVGID_74_" cx="1121.4874" cy="2119.2009" r="93.4401" gradientTransform="matrix(-0.9942 -0.1077 -0.1077 0.9942 3554.6174 185.4869)" gradientUnits="userSpaceOnUse">
					<stop  offset="0" style="stop-color:#FF81FF"/>
					<stop  offset="1" style="stop-color:#9552FF"/>
				</radialGradient>
				<path class="st100" d="M2088.3,2190.5c8.9,13.9,23.9,32.5,23.9,32.5s-1.5,5.1-3.3,12.2c-0.1,0.2-0.1,0.4-0.2,0.6
					c-2.9,11.3-6.6,27.5-6.7,36c0,3,0.3,5,1.3,5.7c0.2,0.1,0.5,0.2,0.7,0.3c1.1,0.4,2.7,0.4,4.7,0.2c0.1,0,0.2,0,0.3,0
					c0.9-0.1,1.8-0.2,2.7-0.4c1.4-0.2,2.8-0.5,4.2-0.8c4-1,8.6-2.3,13.2-3.8l0,0c11.1-3.6,22.4-7.9,26.1-9.4
					c0.9-0.3,1.3-0.5,1.3-0.5s38.8,26,48.1,25.4c0.3,0,0.6,0,0.9-0.1c1.2-0.4,2-3.6,2.5-8.2c0,0,0,0,0-0.1c1-8.9,0.9-23.1,0.6-33.5
					c0-0.1,0-0.3,0-0.5c-0.2-7.3-0.5-12.7-0.5-12.7s19.5-14.8,31-26.5c5.1-5.2,8.6-9.8,8.2-12.2c-1.1-6.8-51.5-19.6-51.5-19.6
					s-3.5-9.6-8-20.3l0-0.1c-5.6-13.3-12.8-28.4-16.7-28.8c-7.6-0.8-34.5,43-34.5,43s-53.9,3.1-54.5,8.4
					C2081.7,2179.3,2084.4,2184.4,2088.3,2190.5z"/>
			</g>
			
				<linearGradient id="SVGID_75_" gradientUnits="userSpaceOnUse" x1="1166.3177" y1="2233.2039" x2="1214.2051" y2="2233.2039" gradientTransform="matrix(-0.9942 -0.1077 -0.1077 0.9942 3554.6174 185.4869)">
				<stop  offset="0" style="stop-color:#8B8BE0"/>
				<stop  offset="1" style="stop-color:#A177B7"/>
			</linearGradient>
			<path class="st101" d="M2105.1,2292.1c0,0,0.2,0,0.8,0c1.2,0,3.5-0.1,7.1-0.7c1.4-0.1,2.9-0.4,4.6-0.8c1-0.2,2.1-0.4,3.3-0.7
				c1.2-0.3,2.4-0.6,3.7-1c1.2-0.3,2.4-0.7,3.7-1c0.1,0,0.3-0.1,0.4-0.1c0.3-0.1,0.7-0.2,1.1-0.3l0,0c6.9-2.1,15.3-5.3,25.1-9.8
				l1.6-14.7c0,0-0.5,0.2-1.3,0.5c-3.6,1.6-14.4,6-26.1,9.6c-4.4,1.4-8.9,2.6-13.2,3.5c-1.4,0.3-2.8,0.6-4.2,0.8
				c-0.9,0.1-1.8,0.3-2.7,0.4c-0.1,0-0.2,0-0.3,0c-0.2,0.1-0.5,0.1-0.7,0.1l-2.6,13.2L2105.1,2292.1z"/>
		</g>
	</g>
	<g>
		<g>
			<path class="st61" d="M2141.8,2123.7c2.3,7.2,3.2,12.5,0,23.2l-54.8,66.6l7.5,52c1.1,11.5-0.7,27.8-2.8,34.1l-80.3-31.5
				l-80.5,31.1c-2-5.3-3.4-22.2-2.6-35.6l7.8-50.5l-54.4-66.9c-2-9.5-3.2-15.1,0-23.2L2141.8,2123.7z"/>
			<path class="st61" d="M2058.5,2124.7l83.4,22.1c-15.3,28.9-30,44.5-54.8,66.6l4.7,86.1c-32.1-3.1-57.8-19.7-80.3-31.5
				c-25.5,14.9-47.1,22.2-80.5,31.1l5.2-86.1c-24.4-22.5-43.2-41.1-54.4-66.9l83.5-21.7l46.8-72.4L2058.5,2124.7z"/>
			
				<linearGradient id="SVGID_76_" gradientUnits="userSpaceOnUse" x1="2134.2488" y1="1844.469" x2="2394.7419" y2="1844.469" gradientTransform="matrix(0.8073 0.5901 -0.5901 0.8073 1264.5343 -649.524)">
				<stop  offset="0" style="stop-color:#971A8F"/>
				<stop  offset="0.4678" style="stop-color:#EF22AC"/>
				<stop  offset="1" style="stop-color:#FE4CCE"/>
			</linearGradient>
			<path class="st102" d="M2058.5,2101.5c0,0,83.4,14,83.4,22.1c0,11.9-54.8,66.6-54.8,66.6s14.2,81,4.7,86.1
				c-10.6,5.7-80.3-31.5-80.3-31.5s-69.3,36.4-80.5,31.1c-7.8-3.7,5.2-86.1,5.2-86.1s-57.8-54.8-54.4-66.9
				c2.9-10.4,83.5-21.7,83.5-21.7s35.7-72.4,46.8-72.4C2023.9,2028.8,2058.5,2101.5,2058.5,2101.5z"/>
			
				<radialGradient id="SVGID_77_" cx="2244.24" cy="1769.3373" r="134.1189" gradientTransform="matrix(0.8073 0.5901 -0.5901 0.8073 1264.5343 -649.524)" gradientUnits="userSpaceOnUse">
				<stop  offset="0" style="stop-color:#FE117E"/>
				<stop  offset="1" style="stop-color:#B31A8F"/>
			</radialGradient>
			<path class="st103" d="M2086,2268.2c-12.6,0-56.5-22-72.4-30.5l-2.2-1.2l-2.2,1.1c-15.9,8.3-59.9,30-72.6,30c0,0-0.1,0-0.1,0
				c-2.2-8,1.7-46,6.8-78.3l0.4-2.4l-1.8-1.7c-24.6-23.3-50.6-52.5-51.3-59.8c5.4-5.1,43.6-13.2,76.8-17.8l2.4-0.3l1.1-2.2
				c14.9-30.1,34.5-63.9,41.1-67.3c6.8,3.2,26.2,37.1,40.6,67.5l1,2.2l2.4,0.4c32.1,5.4,69,13.5,76.4,18c-3,8.4-28.2,36.8-51.3,59.9
				l-1.7,1.7l0.4,2.4c5.7,32.8,9.8,71.4,6.6,78.3C2086.3,2268.2,2086.2,2268.2,2086,2268.2z"/>
		</g>
		<linearGradient id="SVGID_78_" gradientUnits="userSpaceOnUse" x1="2011.436" y1="2271.9116" x2="2086.3931" y2="2271.9116">
			<stop  offset="0" style="stop-color:#8B8BE0"/>
			<stop  offset="1" style="stop-color:#A177B7"/>
		</linearGradient>
		<path class="st104" d="M2011.4,2268.1v-23.2c0,0,43.5,25.1,72.9,31.7l2,22.4C2086.4,2299,2060.3,2297.5,2011.4,2268.1z"/>
		<path class="st24" d="M1907,2119.4c0,0,79.2,57.1,179.4,56.4c0,0,45.5-33.9,51.9-51c0,0-17.1-10.3-81.6-19.1
			c0,0-19.8-49.8-44.8-73.3c0,0-24,26.8-38.9,72.2C1973,2104.6,1934.1,2107.2,1907,2119.4z"/>
	</g>
	<path class="st12" d="M1838.7,1923.3c7.1,13.9,124.7-18.5,136.6-41.5c11.9-23-47.4-41.8-80-35.3
		C1862.7,1853.1,1829.5,1905.3,1838.7,1923.3z"/>
	<g>
		<radialGradient id="SVGID_79_" cx="2051.8184" cy="2267.5056" r="115.3375" gradientUnits="userSpaceOnUse">
			<stop  offset="0" style="stop-color:#3996F7"/>
			<stop  offset="1" style="stop-color:#744FD8"/>
		</radialGradient>
		<path class="st105" d="M1886.4,2286.9c0,0,13-14.1,34.1-21.7c0,0,86-16.7,191.8,0c0,0,18.8,10.4,24.9,21.7H1886.4z"/>
		<path class="st24" d="M2048.3,2259.3l6.8,18.1c0,0,30.6,1.2,49.3,4.1l-10.8-18.9C2093.7,2262.6,2064,2259.1,2048.3,2259.3z"/>
		<linearGradient id="SVGID_80_" gradientUnits="userSpaceOnUse" x1="2011.8315" y1="2407.0786" x2="2011.8315" y2="2275.3066">
			<stop  offset="0" style="stop-color:#1C257B"/>
			<stop  offset="1" style="stop-color:#4F3BBA"/>
		</linearGradient>
		<path class="st106" d="M1904.7,2390.1c0,0-18.3-33.4-18.3-103.3c0,0,111.2-26,250.9,0c0,0,0,69.7-25.4,120.2l-17.3-17
			L1904.7,2390.1z"/>
		<g>
			<polygon class="st24" points="1936.8,2308.3 1938.8,2320.9 2076.8,2320.9 2079,2307.3 			"/>
			<polygon class="st24" points="1939.9,2327.5 1942,2338.4 2006,2338.4 2006,2327.5 			"/>
			<polygon class="st24" points="1942.1,2345 1944.2,2355.9 2034.9,2355.9 2034.9,2345 			"/>
		</g>
		<linearGradient id="SVGID_81_" gradientUnits="userSpaceOnUse" x1="2005.0343" y1="2390.1274" x2="2005.0343" y2="2374.3879">
			<stop  offset="0" style="stop-color:#7460E0"/>
			<stop  offset="1" style="stop-color:#FFFFFF"/>
		</linearGradient>
		<path class="st107" d="M2094.5,2390.1l15.3-15.7c0,0-100.8,21-209.5,5.5l4.4,10.3L2094.5,2390.1z"/>
	</g>
</g>
</svg>
