<svg width="24" height="24" viewBox="0 0 24 24" fill="none" xmlns="http://www.w3.org/2000/svg">
<path d="M16.0325 3H7.96724C5.22831 3 3 5.22841 3 7.96735V16.0327C3 18.7717 5.22831 21 7.96724 21H16.0325C18.7717 21 21 18.7716 21 16.0327V7.96735C21.0001 5.22841 18.7717 3 16.0325 3ZM19.4031 16.0327C19.4031 17.8911 17.8911 19.403 16.0327 19.403H7.96724C6.10892 19.4031 4.59705 17.8911 4.59705 16.0327V7.96735C4.59705 6.10903 6.10892 4.59705 7.96724 4.59705H16.0325C17.891 4.59705 19.403 6.10903 19.403 7.96735L19.4031 16.0327Z" fill="#C40B0B"/>
<path d="M12 7.36206C9.44245 7.36206 7.36182 9.44269 7.36182 12.0002C7.36182 14.5576 9.44245 16.6381 12 16.6381C14.5575 16.6381 16.6381 14.5576 16.6381 12.0002C16.6381 9.44269 14.5575 7.36206 12 7.36206ZM12 15.041C10.3232 15.041 8.95886 13.6769 8.95886 12.0001C8.95886 10.3232 10.3231 8.959 12 8.959C13.6769 8.959 15.0411 10.3232 15.0411 12.0001C15.0411 13.6769 13.6768 15.041 12 15.041Z" fill="#C40B0B"/>
<path d="M16.8327 6.00781C16.525 6.00781 16.2227 6.13238 16.0054 6.35065C15.787 6.56784 15.6615 6.87022 15.6615 7.17898C15.6615 7.48678 15.7871 7.78905 16.0054 8.00732C16.2226 8.22451 16.525 8.35015 16.8327 8.35015C17.1414 8.35015 17.4427 8.22451 17.661 8.00732C17.8793 7.78905 18.0038 7.48668 18.0038 7.17898C18.0038 6.87022 17.8793 6.56784 17.661 6.35065C17.4438 6.13238 17.1414 6.00781 16.8327 6.00781Z" fill="#C40B0B"/>
</svg>
